<svg width="20" height="21" viewBox="0 0 20 21" fill="none" xmlns="http://www.w3.org/2000/svg">
<path d="M9.24744 3.23357C9.55365 2.60547 10.4487 2.60547 10.7549 3.23357L12.3825 6.57212C12.5037 6.82079 12.7398 6.99366 13.0135 7.03416L16.6716 7.57554C17.3559 7.6768 17.6302 8.51637 17.1376 9.00209L14.4788 11.6242C14.2839 11.8163 14.1951 12.0915 14.2408 12.3613L14.8663 16.0539C14.9826 16.7403 14.26 17.2613 13.6455 16.9341L10.3953 15.2035C10.1489 15.0723 9.85343 15.0723 9.60707 15.2035L6.35688 16.9341C5.74232 17.2613 5.01974 16.7403 5.13602 16.0539L5.76153 12.3613C5.80723 12.0915 5.7184 11.8163 5.52356 11.6242L2.86471 9.00209C2.37218 8.51637 2.64646 7.6768 3.33074 7.57554L6.98887 7.03416C7.26253 6.99366 7.49861 6.82079 7.61984 6.57212L9.24744 3.23357Z" fill="#F79624"/>
</svg>
