<svg width="20" height="21" viewBox="0 0 20 21" fill="none" xmlns="http://www.w3.org/2000/svg">
<path d="M9.24817 3.23357C9.55438 2.60547 10.4494 2.60547 10.7556 3.23357L12.3832 6.57212C12.5045 6.82079 12.7406 6.99366 13.0142 7.03416L16.6723 7.57554C17.3566 7.6768 17.6309 8.51637 17.1384 9.00209L14.4795 11.6242C14.2847 11.8163 14.1959 12.0915 14.2416 12.3613L14.8671 16.0539C14.9833 16.7403 14.2608 17.2613 13.6462 16.9341L10.396 15.2035C10.1497 15.0723 9.85417 15.0723 9.6078 15.2035L6.35762 16.9341C5.74306 17.2613 5.02047 16.7403 5.13675 16.0539L5.76226 12.3613C5.80796 12.0915 5.71914 11.8163 5.52429 11.6242L2.86544 9.00209C2.37292 8.51637 2.64719 7.6768 3.33148 7.57554L6.9896 7.03416C7.26327 6.99366 7.49935 6.82079 7.62058 6.57212L9.24817 3.23357Z" fill="#F79624"/>
</svg>
