<svg width="52" height="52" viewBox="0 0 52 52" fill="none" xmlns="http://www.w3.org/2000/svg">
<g id="Frame">
<path id="Vector" d="M41.1667 6.5H10.8333C8.4401 6.5 6.5 8.4401 6.5 10.8333V41.1667C6.5 43.5599 8.4401 45.5 10.8333 45.5H41.1667C43.5599 45.5 45.5 43.5599 45.5 41.1667V10.8333C45.5 8.4401 43.5599 6.5 41.1667 6.5Z" stroke="#0C140C" stroke-width="1.17857" stroke-linecap="round" stroke-linejoin="round"/>
<path id="Vector_2" d="M19.5013 23.8327C21.8945 23.8327 23.8346 21.8926 23.8346 19.4993C23.8346 17.1061 21.8945 15.166 19.5013 15.166C17.1081 15.166 15.168 17.1061 15.168 19.4993C15.168 21.8926 17.1081 23.8327 19.5013 23.8327Z" stroke="#0C140C" stroke-width="1.17857" stroke-linecap="round" stroke-linejoin="round"/>
<path id="Vector_3" d="M45.5 32.5L38.8137 25.8137C38.001 25.0013 36.899 24.5449 35.75 24.5449C34.601 24.5449 33.499 25.0013 32.6863 25.8137L13 45.5" stroke="#0C140C" stroke-width="1.17857" stroke-linecap="round" stroke-linejoin="round"/>
</g>
</svg>
