<svg width="21" height="20" viewBox="0 0 21 20" fill="none" xmlns="http://www.w3.org/2000/svg">
<path d="M0.0385742 10C0.0385742 15.523 4.51557 20 10.0386 20C15.5616 20 20.0386 15.523 20.0386 10C20.0386 4.477 15.5616 0 10.0386 0C4.51557 0 0.0385742 4.477 0.0385742 10ZM1.53857 10C1.53857 7.74566 2.43411 5.58365 4.02817 3.98959C5.62222 2.39553 7.78423 1.5 10.0386 1.5C12.2929 1.5 14.4549 2.39553 16.049 3.98959C17.643 5.58365 18.5386 7.74566 18.5386 10C18.5386 12.2543 17.643 14.4163 16.049 16.0104C14.4549 17.6045 12.2929 18.5 10.0386 18.5C7.78423 18.5 5.62222 17.6045 4.02817 16.0104C2.43411 14.4163 1.53857 12.2543 1.53857 10ZM8.00857 5.47C7.86812 5.61062 7.78923 5.80125 7.78923 6C7.78923 6.19875 7.86812 6.38937 8.00857 6.53L11.4786 10L8.00857 13.47C7.87609 13.6122 7.80397 13.8002 7.8074 13.9945C7.81083 14.1888 7.88954 14.3742 8.02695 14.5116C8.16437 14.649 8.34975 14.7277 8.54405 14.7312C8.73835 14.7346 8.9264 14.6625 9.06857 14.53L13.0686 10.53C13.209 10.3894 13.2879 10.1988 13.2879 10C13.2879 9.80125 13.209 9.61063 13.0686 9.47L9.06857 5.47C8.92795 5.32955 8.73732 5.25066 8.53857 5.25066C8.33982 5.25066 8.1492 5.32955 8.00857 5.47Z" fill="#808080"/>
</svg>
