<svg width="20" height="21" viewBox="0 0 20 21" fill="none" xmlns="http://www.w3.org/2000/svg">
<path d="M9.24842 3.23357C9.55463 2.60547 10.4497 2.60547 10.7559 3.23357L12.3835 6.57212C12.5047 6.82079 12.7408 6.99366 13.0145 7.03416L16.6726 7.57554C17.3569 7.6768 17.6311 8.51637 17.1386 9.00209L14.4798 11.6242C14.2849 11.8163 14.1961 12.0915 14.2418 12.3613L14.8673 16.0539C14.9836 16.7403 14.261 17.2613 13.6464 16.9341L10.3963 15.2035C10.1499 15.0723 9.85441 15.0723 9.60805 15.2035L6.35786 16.9341C5.7433 17.2613 5.02071 16.7403 5.137 16.0539L5.7625 12.3613C5.80821 12.0915 5.71938 11.8163 5.52454 11.6242L2.86569 9.00209C2.37316 8.51637 2.64743 7.6768 3.33172 7.57554L6.98984 7.03416C7.26351 6.99366 7.49959 6.82079 7.62082 6.57212L9.24842 3.23357Z" fill="#F79624"/>
</svg>
