<svg width="20" height="21" viewBox="0 0 20 21" fill="none" xmlns="http://www.w3.org/2000/svg">
<path d="M9.24719 3.23357C9.55341 2.60547 10.4485 2.60547 10.7547 3.23357L12.3823 6.57212C12.5035 6.82079 12.7396 6.99366 13.0132 7.03416L16.6714 7.57554C17.3556 7.6768 17.6299 8.51637 17.1374 9.00209L14.4785 11.6242C14.2837 11.8163 14.1949 12.0915 14.2406 12.3613L14.8661 16.0539C14.9824 16.7403 14.2598 17.2613 13.6452 16.9341L10.395 15.2035C10.1487 15.0723 9.85319 15.0723 9.60683 15.2035L6.35664 16.9341C5.74208 17.2613 5.01949 16.7403 5.13578 16.0539L5.76128 12.3613C5.80699 12.0915 5.71816 11.8163 5.52332 11.6242L2.86447 9.00209C2.37194 8.51637 2.64621 7.6768 3.3305 7.57554L6.98862 7.03416C7.26229 6.99366 7.49837 6.82079 7.6196 6.57212L9.24719 3.23357Z" fill="#F79624"/>
</svg>
