<svg width="84" height="78" viewBox="0 0 84 78" fill="none" xmlns="http://www.w3.org/2000/svg">
<path d="M44.7857 0H39.2143C19.2137 0 3 17.4609 3 39C3 60.5391 19.2137 78 39.2143 78H44.7857C64.7863 78 81 60.5391 81 39C81 17.4609 64.7863 0 44.7857 0Z" fill="white"/>
<path d="M42.5 71C60.4493 71 75 56.6731 75 39C75 21.3269 60.4493 7 42.5 7C24.5507 7 10 21.3269 10 39C10 56.6731 24.5507 71 42.5 71Z" fill="#E0E8E2"/>
<path d="M58.8151 30.095C58.8138 29.7247 58.6027 29.3666 58.2725 29.1746L50.8714 24.9877C50.569 24.8166 50.2004 24.8168 49.8909 24.9747C44.936 27.5012 38.8612 27.5002 33.9072 24.9715C33.6012 24.8153 33.2371 24.8131 32.9362 24.9791L25.511 29.0745C25.1808 29.2665 24.9697 29.6247 24.9684 29.995C24.9282 41.1033 32.1179 52.5201 41.8919 57.1482C42.2852 57.3659 42.1453 57.3659 42.5386 57.1482C52.4967 51.6304 58.8182 41.1682 58.8151 30.095Z" fill="#FDF8E5" stroke="#3A643C" stroke-miterlimit="10"/>
<path opacity="0.5" d="M39.4112 33.4192C39.2786 33.7276 39.2786 34.1185 39.2786 34.9004V36.4979C39.2786 36.5358 39.2786 36.5548 39.2664 36.5666C39.2541 36.5784 39.2344 36.5784 39.195 36.5784H37.5365C36.7248 36.5784 36.3189 36.5784 35.9988 36.7061C35.5719 36.8765 35.2328 37.2031 35.056 37.6143C34.9233 37.9227 34.9233 38.3136 34.9233 39.0955C34.9233 39.8773 34.9233 40.2683 35.056 40.5767C35.2328 40.9878 35.5719 41.3145 35.9988 41.4848C36.3189 41.6125 36.7248 41.6125 37.5365 41.6125H39.195C39.2344 41.6125 39.2541 41.6125 39.2664 41.6243C39.2786 41.6361 39.2786 41.6551 39.2786 41.6931V43.2906C39.2786 44.0724 39.2786 44.4634 39.4112 44.7718C39.5881 45.1829 39.9272 45.5096 40.3541 45.6799C40.6742 45.8076 41.0801 45.8076 41.8918 45.8076C42.7035 45.8076 43.1094 45.8076 43.4295 45.6799C43.8564 45.5096 44.1956 45.1829 44.3724 44.7718C44.505 44.4634 44.505 44.0724 44.505 43.2906V41.6931C44.505 41.6551 44.505 41.6361 44.5172 41.6243C44.5295 41.6125 44.5492 41.6125 44.5886 41.6125H46.2471C47.0588 41.6125 47.4647 41.6125 47.7848 41.4848C48.2117 41.3145 48.5509 40.9878 48.7277 40.5767C48.8603 40.2683 48.8603 39.8773 48.8603 39.0955C48.8603 38.3136 48.8603 37.9227 48.7277 37.6143C48.5509 37.2031 48.2117 36.8765 47.7848 36.7061C47.4647 36.5784 47.0588 36.5784 46.2471 36.5784H44.5886C44.5492 36.5784 44.5295 36.5784 44.5172 36.5666C44.505 36.5548 44.505 36.5358 44.505 36.4979V34.9004C44.505 34.1185 44.505 33.7276 44.3724 33.4192C44.1956 33.008 43.8564 32.6813 43.4295 32.511C43.1094 32.3833 42.7035 32.3833 41.8918 32.3833C41.0801 32.3833 40.6742 32.3833 40.3541 32.511C39.9272 32.6813 39.5881 33.008 39.4112 33.4192Z" fill="#E0E8E2" stroke="#3A643C"/>
<path opacity="0.5" d="M34.25 54.7709C35.9759 54.7709 37.375 53.6049 37.375 52.1667C37.375 50.7285 35.9759 49.5625 34.25 49.5625C32.5241 49.5625 31.125 50.7285 31.125 52.1667C31.125 53.6049 32.5241 54.7709 34.25 54.7709Z" stroke="#3A643C"/>
<path d="M34.25 49.25V49.4583" stroke="#3A643C" stroke-linecap="round"/>
<path d="M34.25 54.458V55.2913" stroke="#3A643C" stroke-linecap="round"/>
<path d="M31.616 50.6114C31.8281 50.7882 32.1721 50.7882 32.3842 50.6114C32.5963 50.4347 32.5963 50.148 32.3842 49.9712L31.616 50.6114ZM31.366 50.4031L31.616 50.6114L32.3842 49.9712L32.1342 49.7629L31.366 50.4031Z" fill="#3A643C"/>
<path d="M35.7409 50.2837C35.5288 50.4605 35.5288 50.7472 35.7409 50.9239C35.953 51.1007 36.297 51.1007 36.5091 50.9239L35.7409 50.2837ZM36.3659 49.7629L35.7409 50.2837L36.5091 50.9239L37.1341 50.4031L36.3659 49.7629Z" fill="#3A643C"/>
<path d="M36.8841 53.7216C36.672 53.5448 36.328 53.5448 36.1159 53.7216C35.9038 53.8984 35.9038 54.185 36.1159 54.3618L36.8841 53.7216ZM37.1341 53.9299L36.8841 53.7216L36.1159 54.3618L36.3659 54.5701L37.1341 53.9299Z" fill="#3A643C"/>
<path d="M30.5 52.1665H31" stroke="#3A643C" stroke-linecap="round"/>
<path d="M37 52.1665H38" stroke="#3A643C" stroke-linecap="round"/>
<path d="M32.7592 54.0493C32.9713 53.8725 32.9713 53.5859 32.7592 53.4091C32.5471 53.2323 32.2031 53.2323 31.991 53.4091L32.7592 54.0493ZM32.1342 54.5701L32.7592 54.0493L31.991 53.4091L31.366 53.9299L32.1342 54.5701Z" fill="#3A643C"/>
<path d="M34.5 50.9167C34.5 51.1468 34.2761 51.3333 34 51.3333C33.7239 51.3333 33.5 51.1468 33.5 50.9167C33.5 50.6865 33.7239 50.5 34 50.5C34.2761 50.5 34.5 50.6865 34.5 50.9167Z" stroke="#3A643C"/>
<path d="M33.5 52.5832C33.5 52.8133 33.2761 52.9998 33 52.9998C32.7239 52.9998 32.5 52.8133 32.5 52.5832C32.5 52.3531 32.7239 52.1665 33 52.1665C33.2761 52.1665 33.5 52.3531 33.5 52.5832Z" stroke="#3A643C"/>
<path d="M36.25 52.9997C36.25 53.2298 36.0261 53.4163 35.75 53.4163C35.4739 53.4163 35.25 53.2298 35.25 52.9997C35.25 52.7696 35.4739 52.583 35.75 52.583C36.0261 52.583 36.25 52.7696 36.25 52.9997Z" stroke="#3A643C"/>
<path d="M34.25 48.2082C34.5261 48.2082 34.75 48.3947 34.75 48.6248C34.75 48.855 34.5261 49.0415 34.25 49.0415C33.9739 49.0415 33.75 48.855 33.75 48.6248C33.75 48.3947 33.9739 48.2082 34.25 48.2082Z" stroke="#3A643C"/>
<path d="M34.75 55.7083C34.75 55.4782 34.5261 55.2917 34.25 55.2917C33.9739 55.2917 33.75 55.4782 33.75 55.7083C33.75 55.9385 33.9739 56.125 34.25 56.125C34.5261 56.125 34.75 55.9385 34.75 55.7083Z" stroke="#3A643C"/>
<path d="M31.25 49.2497C31.5261 49.2497 31.75 49.4362 31.75 49.6663C31.75 49.8965 31.5261 50.083 31.25 50.083C30.9739 50.083 30.75 49.8965 30.75 49.6663C30.75 49.4362 30.9739 49.2497 31.25 49.2497Z" stroke="#3A643C"/>
<path d="M37.25 49.2497C37.5261 49.2497 37.75 49.4362 37.75 49.6663C37.75 49.8965 37.5261 50.083 37.25 50.083C36.9739 50.083 36.75 49.8965 36.75 49.6663C36.75 49.4362 36.9739 49.2497 37.25 49.2497Z" stroke="#3A643C"/>
<path d="M37.25 54.2497C37.5261 54.2497 37.75 54.4362 37.75 54.6663C37.75 54.8965 37.5261 55.083 37.25 55.083C36.9739 55.083 36.75 54.8965 36.75 54.6663C36.75 54.4362 36.9739 54.2497 37.25 54.2497Z" stroke="#3A643C"/>
<path d="M30.5 52.1663C30.5 51.9362 30.2761 51.7497 30 51.7497C29.7239 51.7497 29.5 51.9362 29.5 52.1663C29.5 52.3965 29.7239 52.583 30 52.583C30.2761 52.583 30.5 52.3965 30.5 52.1663Z" stroke="#3A643C"/>
<path d="M39 52.1663C39 51.9362 38.7761 51.7497 38.5 51.7497C38.2239 51.7497 38 51.9362 38 52.1663C38 52.3965 38.2239 52.583 38.5 52.583C38.7761 52.583 39 52.3965 39 52.1663Z" stroke="#3A643C"/>
<path d="M31.25 54.2497C31.5261 54.2497 31.75 54.4362 31.75 54.6663C31.75 54.8965 31.5261 55.083 31.25 55.083C30.9739 55.083 30.75 54.8965 30.75 54.6663C30.75 54.4362 30.9739 54.2497 31.25 54.2497Z" stroke="#3A643C"/>
</svg>
