<svg width="25" height="24" viewBox="0 0 25 24" fill="none" xmlns="http://www.w3.org/2000/svg">
<path d="M14.2939 8.23375L14.2933 8.23315C13.8083 7.74897 13.2106 7.5 12.527 7.5C11.8435 7.5 11.2459 7.749 10.7615 8.23345C10.2766 8.71838 10.027 9.31621 10.027 10C10.027 10.6837 10.2765 11.2812 10.7615 11.7656C11.2458 12.2506 11.8434 12.5 12.527 12.5C13.2108 12.5 13.8087 12.2505 14.2936 11.7656C14.778 11.2811 15.027 10.6835 15.027 10C15.027 9.31649 14.7781 8.71874 14.2939 8.23375ZM7.27898 4.59258L7.27906 4.59251C8.79813 3.19121 10.5406 2.5 12.527 2.5C14.5135 2.5 16.2559 3.19121 17.775 4.59251L17.7751 4.59258C19.266 5.96736 20.027 7.81773 20.027 10.2C20.027 11.6731 19.4744 13.2999 18.3081 15.09C17.1424 16.8788 15.3631 18.839 12.9522 20.9698C12.9 21.0124 12.8347 21.0506 12.7515 21.0818C12.6704 21.1122 12.5964 21.125 12.527 21.125C12.4576 21.125 12.3836 21.1122 12.3026 21.0818C12.2194 21.0506 12.1541 21.0124 12.1019 20.9698C9.69098 18.839 7.91169 16.8788 6.74593 15.09C5.57972 13.2999 5.02704 11.6731 5.02704 10.2C5.02704 7.81773 5.78805 5.96736 7.27898 4.59258Z" fill="#3A643B" stroke="#3A643B"/>
</svg>
