<svg width="84" height="78" viewBox="0 0 84 78" fill="none" xmlns="http://www.w3.org/2000/svg">
<path d="M44.7857 0H39.2143C19.2137 0 3 17.4609 3 39C3 60.5391 19.2137 78 39.2143 78H44.7857C64.7863 78 81 60.5391 81 39C81 17.4609 64.7863 0 44.7857 0Z" fill="white"/>
<path d="M41.5 71C59.4493 71 74 56.6731 74 39C74 21.3269 59.4493 7 41.5 7C23.5507 7 9 21.3269 9 39C9 56.6731 23.5507 71 41.5 71Z" fill="#E0E8E2"/>
<path d="M54.6409 32.262C54.1098 42.3916 48.1652 30.4546 40.8321 30.4546C38.992 31.1937 28.1231 42.9205 27.3076 32.26C27.3076 25.7823 33.499 20 40.8321 20C48.1652 20 54.6409 25.7843 54.6409 32.262Z" fill="#FDF8E5"/>
<path d="M52.4373 58.3276C50.134 57.8986 48.4598 56.7559 47.4524 54.9366C46.0004 52.3089 46.4403 49.2273 46.6342 48.7777C48.3652 47.6226 49.6516 46.1128 50.607 44.079C52.0116 44.0501 53.4021 43.1055 54.3433 41.542C55.1284 40.2343 55.5446 38.4316 54.698 37.3631C54.5277 37.1445 54.2676 36.9176 53.8798 36.7567C54.9014 35.0654 55.1095 33.6463 55.1095 31.8229C55.1095 25.3051 48.9422 20 41.3655 20C38.2772 20 35.4206 20.8828 33.122 22.3679C33.1126 22.372 33.1031 22.3761 33.0937 22.3803C33.0653 22.3968 33.0416 22.4174 33.018 22.438C29.7357 24.5996 27.6169 28.003 27.6169 31.8229C27.6169 33.8154 27.6642 34.9045 28.681 36.5175C28.2034 36.6783 27.8959 36.9382 27.702 37.1857C26.8555 38.2583 27.2669 40.0569 28.0567 41.3646C29.0121 42.9569 30.4357 43.9058 31.864 43.9058C31.9302 43.9058 31.9917 43.8893 32.0437 43.8645C33.07 46.0179 34.4321 47.6721 36.0969 48.7777C36.2861 49.2232 36.7306 52.3047 35.2787 54.9366C34.2713 56.7559 32.5923 57.8986 30.2938 58.3317C30.0857 58.3688 29.9533 58.5503 29.9958 58.7319C30.0337 58.8886 30.1945 59 30.3742 59C30.4026 59 30.4262 58.9959 30.4546 58.9917C34.6213 58.2121 36.1773 55.4523 36.7496 53.2742C37.1137 51.8963 37.1468 50.3618 37.0097 49.3593C38.3056 50.073 39.819 50.4566 41.3655 50.4566C42.9121 50.4566 44.4303 50.0689 45.7214 49.3593C45.5795 50.3659 45.6174 51.8963 45.9815 53.2742C46.5538 55.4523 48.1098 58.2121 52.2765 58.9917C52.3049 58.9959 52.3332 59 52.3569 59C52.5366 59 52.6974 58.8927 52.7352 58.7319C52.7778 58.5421 52.6454 58.3647 52.4373 58.3276ZM54.3338 31.8188C54.3338 33.8649 54.0122 35.1314 53.1136 36.5628C52.9528 36.5463 52.7825 36.5381 52.5934 36.5422C53.4447 27.3305 46.6673 25.0905 46.5964 25.0699C46.393 25.008 46.1754 25.0988 46.0998 25.2721C46.0288 25.4453 46.1329 25.6392 46.3315 25.7052C46.3883 25.7217 51.0184 27.2604 51.7799 33.2626C49.0888 27.4626 40.8122 27.5121 40.7129 27.5203C40.5 27.5244 40.3298 27.6771 40.3345 27.8627C40.3392 28.0483 40.5095 28.1927 40.7223 28.1927C40.7271 28.1927 40.7271 28.1927 40.7271 28.1927C41.1196 28.1845 49.8171 28.1391 51.5387 34.8797C50.6968 33.9598 49.4672 33.1389 47.826 32.3963C46.8896 31.9714 45.9011 31.6167 44.9458 31.2743C43.9337 30.9113 42.8884 30.5359 41.9142 30.0821C38.2441 28.3577 35.8982 25.5361 33.8315 22.7515C35.955 21.4438 38.5562 20.6724 41.3608 20.6724C48.5165 20.6724 54.3338 25.6722 54.3338 31.8188ZM28.3925 31.8188C28.3925 28.3247 30.2749 25.2019 33.2119 23.1558C35.1699 25.796 37.3928 28.4691 40.7649 30.2677C40.0129 31.1216 36.5698 34.7147 30.9228 36.1874C31.2208 33.5638 33.997 30.9608 34.0254 30.936C34.172 30.7999 34.1625 30.5854 34.0112 30.4575C33.8551 30.3296 33.6092 30.3378 33.4673 30.4699C33.3349 30.5936 30.3033 33.4276 30.133 36.3772C30.1283 36.3772 30.1235 36.3772 30.1188 36.3813C29.8871 36.3607 29.6742 36.3566 29.4803 36.3648C28.4398 34.7972 28.3925 33.8195 28.3925 31.8188ZM36.6266 48.2785C34.8625 47.1193 33.4531 45.3042 32.4457 42.9033L31.793 40.9768C31.7316 40.7994 31.5187 40.6963 31.3106 40.7499C31.1073 40.8036 30.989 40.9892 31.0505 41.1707L31.7126 43.1178C31.7268 43.155 31.7458 43.188 31.7599 43.2251C30.4688 43.1673 29.3621 42.0741 28.7473 41.0511C27.9432 39.7145 27.7777 38.2831 28.3452 37.5694C28.681 37.1445 29.2722 36.9754 30.1046 37.0661C30.1141 37.0661 30.1283 37.0661 30.1377 37.0661C30.1425 37.0661 30.1472 37.0661 30.1519 37.0661C30.1566 37.0661 30.1614 37.0661 30.1661 37.0661C30.1897 37.0661 30.2134 37.062 30.237 37.0579C30.2418 37.0579 30.2418 37.0579 30.2465 37.0579H30.2512C30.256 37.0579 30.2607 37.0579 30.2654 37.0537C30.3553 37.0331 30.4451 37.0125 30.5303 36.9919C30.5823 36.9877 30.6343 36.9754 30.6816 36.9589C37.0522 35.4614 40.746 31.4352 41.4412 30.6184C41.4838 30.639 41.5263 30.6637 41.5689 30.6844C42.5763 31.1546 43.6404 31.5383 44.6667 31.9054C45.6032 32.2437 46.5774 32.5902 47.4855 33.0027C49.8124 34.0506 51.236 35.251 51.8461 36.666C51.8461 36.6701 51.8508 36.6701 51.8508 36.6742C51.8556 36.6825 51.8603 36.6948 51.865 36.7031C51.8698 36.7113 51.8745 36.7196 51.8839 36.7278C51.8887 36.7361 51.8981 36.7443 51.9029 36.7526C51.9029 36.7526 51.9029 36.7567 51.9076 36.7567C51.8745 36.8145 51.8556 36.8846 51.865 36.9547C51.8887 37.1404 52.0826 37.2724 52.2954 37.2476C53.1278 37.161 53.719 37.3301 54.0548 37.7509C54.6223 38.4646 54.4568 39.9001 53.6528 41.2326C53.0805 42.1855 52.0826 43.1921 50.9049 43.3777C51.0137 43.1096 51.1225 42.8332 51.2218 42.5485L51.6758 40.882C51.7231 40.7004 51.5954 40.5189 51.3873 40.4777C51.1792 40.4364 50.9711 40.5478 50.9238 40.7293L50.4745 42.3753C49.5239 45.0649 48.1382 46.9419 46.0903 48.2909C46.0856 48.2909 46.0856 48.295 46.0808 48.295C44.7566 49.2521 43.0823 49.7801 41.3608 49.7801C39.644 49.776 37.965 49.2479 36.6266 48.2785Z" fill="#3A643C"/>
<path d="M38.1397 37.9282C36.2952 39.1658 34.0487 37.9612 33.9494 37.9117C33.7697 37.8127 33.5285 37.8581 33.415 38.0148C33.3015 38.1716 33.3535 38.382 33.5332 38.481C33.6089 38.5222 34.7913 39.1617 36.2385 39.1617C36.9952 39.1617 37.8229 38.9884 38.6032 38.4645C38.7735 38.3531 38.8066 38.1386 38.6742 37.9901C38.5512 37.8457 38.31 37.8168 38.1397 37.9282Z" fill="#3A643C"/>
<path d="M49.1878 38.4809C49.3676 38.3819 49.4196 38.1756 49.3061 38.0148C49.1926 37.858 48.9561 37.8085 48.7717 37.9075C48.6771 37.9611 46.4306 39.1616 44.5813 37.924C44.4111 37.8085 44.1699 37.8374 44.0374 37.9859C43.905 38.1344 43.9381 38.3448 44.1084 38.4603C44.8887 38.9842 45.7164 39.1574 46.4731 39.1574C47.9298 39.1616 49.1169 38.5222 49.1878 38.4809Z" fill="#3A643C"/>
<path d="M25.966 37.3136C24.1877 37.1693 24.0458 34.6034 24.0458 34.5786C24.0363 34.3971 23.8661 34.2568 23.658 34.2568C23.4499 34.2568 23.2796 34.4012 23.2702 34.5786C23.2702 34.6034 23.1283 37.1693 21.35 37.3136C21.1513 37.3301 21 37.4745 21 37.6478C21 37.821 21.1513 37.9654 21.35 37.9819C22.8256 38.1016 23.2371 40.5726 23.2702 41.5131C23.2749 41.6946 23.4499 41.839 23.658 41.839C23.8661 41.839 24.0363 41.6946 24.0458 41.5131C24.0789 40.5726 24.4904 38.1016 25.966 37.9819C26.1646 37.9654 26.316 37.821 26.316 37.6478C26.316 37.4745 26.1646 37.3301 25.966 37.3136ZM23.658 39.4381C23.4262 38.7616 23.0526 38.0809 22.4614 37.6767C23.0526 37.3425 23.4262 36.7939 23.658 36.2493C23.8897 36.7939 24.2634 37.3425 24.8545 37.6767C24.2634 38.0809 23.8897 38.7616 23.658 39.4381Z" fill="#3A643C"/>
<path d="M61.6501 26.7492C59.8718 26.6048 59.7299 24.0389 59.7299 24.0142C59.7204 23.8326 59.5502 23.6924 59.3421 23.6924C59.134 23.6924 58.9637 23.8368 58.9542 24.0142C58.9542 24.0389 58.8124 26.6048 57.0341 26.7492C56.8354 26.7657 56.6841 26.9101 56.6841 27.0833C56.6841 27.2566 56.8354 27.401 57.0341 27.4175C58.5097 27.5371 58.9211 30.0081 58.9542 30.9487C58.959 31.1302 59.134 31.2746 59.3421 31.2746C59.5502 31.2746 59.7204 31.1302 59.7299 30.9487C59.763 30.0081 60.1744 27.5371 61.6501 27.4175C61.8487 27.401 62 27.2566 62 27.0833C62 26.9101 61.8487 26.7657 61.6501 26.7492ZM59.3468 28.8737C59.115 28.1971 58.7414 27.5165 58.1502 27.1122C58.7414 26.7781 59.115 26.2294 59.3468 25.6849C59.5785 26.2294 59.9522 26.7781 60.5434 27.1122C59.9474 27.5165 59.5785 28.1971 59.3468 28.8737Z" fill="#3A643C"/>
<path d="M28.7471 44.2478C27.9431 44.1818 27.8769 42.9896 27.8769 42.9772C27.8722 42.8576 27.7587 42.7627 27.6215 42.7627C27.4844 42.7627 27.3709 42.8576 27.3661 42.9772C27.3661 42.9896 27.2905 44.1818 26.4959 44.2478C26.3635 44.2602 26.2642 44.355 26.2642 44.4705C26.2642 44.5861 26.3635 44.6851 26.4959 44.6933C27.158 44.7469 27.3472 45.935 27.3661 46.3475C27.3709 46.4672 27.4844 46.5662 27.6215 46.5662C27.7587 46.5662 27.8769 46.4713 27.8769 46.3475C27.8911 45.935 28.085 44.7469 28.7471 44.6933C28.8796 44.6809 28.9789 44.5861 28.9789 44.4705C28.9789 44.355 28.8796 44.2602 28.7471 44.2478ZM27.6215 45.1347C27.5175 44.8872 27.3661 44.6562 27.158 44.4912C27.3661 44.3509 27.5175 44.157 27.6215 43.9549C27.7256 44.157 27.8769 44.3509 28.085 44.4912C27.8769 44.6562 27.7256 44.8872 27.6215 45.1347Z" fill="#3A643C"/>
</svg>
